<svg width="141" height="141" viewBox="0 0 141 141" fill="none" xmlns="http://www.w3.org/2000/svg">
<path d="M128.845 141H12.1553C10.8127 141 9.72412 139.911 9.72412 138.569V133.707C9.72412 132.364 10.8127 131.276 12.1553 131.276H128.845C130.187 131.276 131.276 132.364 131.276 133.707V138.569C131.276 139.911 130.187 141 128.845 141Z" fill="#27897E"/>
<path d="M74.1629 0H66.8375C64.6842 0 62.7873 1.41633 62.1757 3.48094L24.3105 131.276H116.69L78.8247 3.48094C78.213 1.41633 76.3161 0 74.1629 0Z" fill="#39B0A3"/>
<path d="M47.3604 53.4828H93.6397L87.8775 34.0344H53.1226L47.3604 53.4828Z" fill="#D8FDF8"/>
<path d="M32.9536 102.104H108.046L102.283 82.6552H38.7162L32.9536 102.104Z" fill="#D8FDF8"/>
<path d="M60.3262 9.72405H80.6748L79.2342 4.86203H61.7667L60.3262 9.72405Z" fill="#27897E"/>
<path d="M57.4448 19.4484H83.5557L82.1151 14.5863H58.8854L57.4448 19.4484Z" fill="#27897E"/>
</svg>
